<svg xmlns="http://www.w3.org/2000/svg" width="182" height="40" fill="none"><g clip-path="url(#clip0)"><path fill="#6F9AA8" d="M91.3 16.2v2.3h4v1.7h-4v3.2h-2v-8.9H96v1.7h-4.6zm9.2 2.8c0-2.7 2-4.6 4.8-4.6 2.7 0 4.7 1.9 4.7 4.6 0 2.6-2 4.5-4.7 4.5-2.8 0-4.8-1.9-4.8-4.5zm7.4 0c0-1.7-1.1-2.9-2.7-2.9s-2.7 1.2-2.7 2.9c0 1.6 1.2 2.8 2.7 2.8 1.6 0 2.7-1.2 2.7-2.8zm13 4.4l-1.6-2.5h-1.9v2.5h-2v-8.9h3.8c2.3 0 3.7 1.3 3.7 3.3a3 3 0 01-1.7 2.8l1.9 2.8H121zm-1.8-7.2h-1.7v3h1.7c1.2 0 1.8-.5 1.8-1.4s-.6-1.6-1.8-1.6zm22.5-1.7l-2.9 8.9h-2.1l-2-6-2 6h-2l-2.9-8.9h2.1l2 6.3 2-6.3h1.9l2 6.3 2-6.3h1.9zm10.4 7h-4l-.8 1.9h-2l3.8-8.9h2l3.9 8.9h-2.1l-.8-2zm-.6-1.6l-1.4-3.4-1.3 3.4h2.7zm13.8 3.5l-1.6-2.5h-1.9v2.5h-2v-8.9h3.7c2.4 0 3.8 1.3 3.8 3.3a3 3 0 01-1.8 2.8l2 2.8h-2.2zm-1.8-7.2h-1.7v3h1.7c1.2 0 1.8-.5 1.8-1.4s-.6-1.6-1.8-1.6zm9.4-1.7h3.9c2.8 0 4.8 1.8 4.8 4.5 0 2.6-2 4.4-4.8 4.4h-4v-8.9zm3.8 7.2c1.7 0 2.8-1 2.8-2.7 0-1.7-1.1-2.8-2.8-2.8h-1.8v5.5h1.8z"/><path fill="url(#paint0_linear)" d="M4.4 0C2 0 0 2 0 4.5v31C0 38 2 40 4.4 40H69c2.4 0 4.3-2 4.3-4.4v-7.4c0-.8.3-1.6.9-2.1l3.6-3.7c1-1 1-2.7 0-3.7l-3.6-3.6c-.6-.6-1-1.4-1-2.2V4.5C73.4 2 71.5 0 69 0H4.4z"/><path fill="#fff" d="M63.5 7.2a3 3 0 012.9 3v19.6c0 1.7-1.3 3-3 3s-2.8-1.3-2.8-3V10.2a3 3 0 012.9-3zM54 19.6h-3.2a3 3 0 00-3 2.8 3 3 0 002.9 3.1c.3 0 .5.4.4.6-.3.9-.9 1.6-1.7 1.8-.9.2-1.7.3-2.6.3-1.6 0-3-.4-4.2-1a7.2 7.2 0 01-2.9-3c-.7-1.2-1-2.6-1-4.2s.3-3 1-4.3a7.3 7.3 0 013-2.9c1.2-.7 2.6-1 4.1-1 1.9 0 3.5.5 5 1.5a2.5 2.5 0 003 0c1.4-1.1 1.3-3.3-.1-4.3A12.4 12.4 0 0052.6 8a15 15 0 00-6-1.2c-2.6 0-5 .6-7 1.7-2 1.2-3.7 2.7-4.9 4.7-1.2 2-1.8 4.3-1.8 6.9 0 2.5.6 4.8 1.8 6.8a12.3 12.3 0 004.9 4.7c2 1.1 4.4 1.7 7 1.7 1.8 0 3.6-.3 5.4-.9a6.8 6.8 0 004.7-6.5v-3.6c0-1.4-1.2-2.6-2.6-2.6zM30 10.1V30a3 3 0 01-2.9 3h-.5c-1 0-1.7-.5-2.2-1.2L14.9 20c-.7-.9-2.2-.4-2.2.7V30a3 3 0 01-2.8 3 3 3 0 01-2.9-3V10a3 3 0 012.9-3h.6c.8 0 1.7.5 2.2 1.2L22 20c.7.9 2.1.4 2.1-.7V10a3 3 0 012.9-3 3 3 0 012.9 3z"/></g><defs><linearGradient id="paint0_linear" x1="63.5" x2="8.6" y1="-7.5" y2="46.2" gradientUnits="userSpaceOnUse"><stop stop-color="#FFDB6A"/><stop offset="0" stop-color="#FFDB6A"/><stop offset="1" stop-color="#009C8E"/></linearGradient><clipPath id="clip0"><path fill="#fff" d="M0 0h181.5v40H0V0z"/></clipPath></defs></svg>