<?xml version="1.0" standalone="no"?>
<!DOCTYPE svg PUBLIC "-//W3C//DTD SVG 20010904//EN"
 "http://www.w3.org/TR/2001/REC-SVG-20010904/DTD/svg10.dtd">
<svg version="1.0" xmlns="http://www.w3.org/2000/svg"
 width="512.000000pt" height="512.000000pt" viewBox="0 0 512.000000 512.000000"
 preserveAspectRatio="xMidYMid meet">
<metadata>
Created by potrace 1.11, written by Peter Selinger 2001-2013
</metadata>
<g transform="translate(0.000000,512.000000) scale(0.100000,-0.100000)"
fill="#000000" stroke="none">
<path d="M2215 4900 c-383 -72 -629 -164 -922 -347 -161 -101 -276 -194 -427
-347 -263 -266 -467 -610 -572 -962 -45 -155 -70 -268 -81 -374 -3 -30 -9 -59
-14 -64 -12 -13 -12 -472 0 -494 5 -9 11 -40 14 -67 16 -156 74 -377 152 -570
116 -289 274 -532 495 -759 369 -381 811 -610 1340 -696 41 -6 85 -16 98 -21
30 -12 505 -12 518 0 5 5 56 17 114 25 167 25 423 101 580 172 705 319 1206
936 1359 1674 54 259 61 316 61 495 0 184 -12 268 -78 560 -18 81 -73 255
-100 317 -93 212 -121 264 -221 416 -166 254 -421 508 -681 681 -191 127 -515
267 -745 320 -230 54 -313 64 -530 67 -194 2 -221 0 -360 -26z m1077 -1710
c65 -18 178 -68 208 -92 52 -43 65 -116 30 -173 -39 -63 -112 -74 -188 -28
-60 36 -75 42 -142 59 -218 53 -433 -57 -500 -256 -57 -170 -25 -341 86 -460
88 -95 232 -142 371 -121 83 12 124 30 147 63 33 46 11 88 -45 88 -12 0 -39
17 -60 39 -36 36 -39 42 -39 98 0 116 75 161 251 151 96 -5 141 -24 164 -68
21 -40 21 -276 0 -346 -20 -69 -70 -140 -124 -180 -118 -85 -370 -115 -571
-67 -209 49 -393 222 -463 433 -26 81 -33 274 -13 369 69 326 366 535 731 514
50 -3 120 -13 157 -23z m-1992 -25 c14 -10 138 -160 275 -333 138 -172 260
-318 272 -323 28 -11 53 -3 75 25 16 19 18 50 18 290 0 257 1 270 22 303 51
84 179 82 235 -4 17 -25 18 -64 18 -583 l0 -555 -24 -34 c-27 -38 -74 -61
-126 -61 -74 0 -95 18 -266 232 -324 405 -360 448 -384 454 -30 8 -64 -11 -75
-42 -6 -14 -10 -141 -10 -282 0 -239 -1 -259 -20 -290 -58 -95 -183 -93 -237
3 l-23 40 0 535 0 535 23 40 c30 54 77 77 147 73 35 -3 65 -11 80 -23z m2743
-14 l42 -40 3 -553 c2 -511 1 -556 -15 -588 -49 -97 -186 -107 -241 -18 -21
35 -22 41 -22 587 -1 429 2 558 12 579 21 43 74 72 130 72 43 0 54 -5 91 -39z"/>
</g>
</svg>
