<?xml version="1.0" standalone="no"?>
<!DOCTYPE svg PUBLIC "-//W3C//DTD SVG 20010904//EN"
 "http://www.w3.org/TR/2001/REC-SVG-20010904/DTD/svg10.dtd">
<svg version="1.0" xmlns="http://www.w3.org/2000/svg"
 width="720.000000pt" height="720.000000pt" viewBox="0 0 720.000000 720.000000"
 preserveAspectRatio="xMidYMid meet">
<metadata>
Created by potrace 1.11, written by Peter Selinger 2001-2013
</metadata>
<g transform="translate(0.000000,720.000000) scale(0.100000,-0.100000)"
fill="#000000" stroke="none">
<path d="M1735 6993 c-22 -2 -89 -13 -148 -24 -733 -136 -1291 -739 -1377
-1484 -6 -58 -10 -725 -10 -1895 0 -1491 3 -1823 14 -1910 102 -764 702 -1364
1466 -1466 87 -11 419 -14 1910 -14 1170 0 1837 4 1895 10 201 23 369 72 550
160 493 239 826 672 937 1222 l23 113 0 1875 c0 2009 2 1933 -51 2141 -80 319
-273 635 -520 851 -196 171 -451 308 -687 369 -216 56 -88 52 -2102 54 -1023
1 -1878 0 -1900 -2z m816 -1562 c31 -12 77 -35 103 -52 34 -23 235 -262 763
-907 395 -483 730 -889 746 -904 78 -74 205 -54 261 42 21 34 21 51 26 780 l5
745 32 68 c157 331 615 336 776 8 l32 -66 3 -1519 c3 -1663 6 -1570 -54 -1672
-35 -60 -125 -141 -188 -170 -162 -74 -402 -49 -529 56 -20 18 -364 430 -765
917 -642 783 -732 889 -771 906 -56 25 -120 17 -168 -19 -73 -55 -67 5 -73
-824 l-5 -745 -23 -58 c-75 -185 -269 -297 -462 -266 -142 23 -260 112 -323
246 l-32 68 -3 1517 c-2 1507 -2 1518 18 1579 12 33 32 78 45 99 58 91 175
171 281 190 80 15 242 4 305 -19z"/>
</g>
</svg>
